%TF.GenerationSoftware,KiCad,Pcbnew,10.0.0*%
%TF.CreationDate,2026-08-20T20:12:32+05:30*%
%TF.ProjectId,Gpio Hat Pi,4770696f-2048-4617-9420-50692e6b6963,1*%
%TF.SameCoordinates,Original*%
%TF.FileFunction,Drillmap*%
%TF.FilePolarity,Positive*%
%FSLAX45Y45*%
G04 Gerber Fmt 4.5, Leading zero omitted, Abs format (unit mm)*
G04 Created by KiCad (PCBNEW 10.0.0) date 2026-08-20 20:12:32*
%MOMM*%
%LPD*%
G01*
G04 APERTURE LIST*
%ADD10C,0.150000*%
%ADD11C,0.200000*%
%ADD12C,0.220000*%
G04 APERTURE END LIST*
D10*
X16814800Y-11430000D02*
X17356650Y-11849900D01*
X17356650Y-11849900D02*
X17356650Y-12502400D01*
X16814800Y-13004800D02*
X17356650Y-12502400D01*
X14020800Y-11480800D02*
X13487500Y-11932500D01*
X13487500Y-12585000D02*
X13487500Y-11932500D01*
X14020800Y-13004800D02*
X13487500Y-12585000D01*
X16713200Y-11328400D02*
G75*
G02*
X16814800Y-11430000I0J-101600D01*
G01*
X14020800Y-11480800D02*
G75*
G02*
X14173200Y-11328400I152400J0D01*
G01*
X14122400Y-13106400D02*
G75*
G02*
X14020800Y-13004800I0J101600D01*
G01*
X14249400Y-13106400D02*
X14122400Y-13106400D01*
X14681200Y-13106400D02*
X14249400Y-13106400D01*
X14681200Y-13106400D02*
X16713200Y-13106400D01*
X16713200Y-11328400D02*
X14173200Y-11328400D01*
X16814800Y-13004800D02*
G75*
G02*
X16713200Y-13106400I-101600J0D01*
G01*
D11*
D12*
X13687500Y-12127500D02*
X13907500Y-12347500D01*
X13907500Y-12127500D02*
X13687500Y-12347500D01*
X16915000Y-12125000D02*
X17135000Y-12345000D01*
X17135000Y-12125000D02*
X16915000Y-12345000D01*
D11*
X13740777Y-13425384D02*
X13740777Y-13225384D01*
X13740777Y-13225384D02*
X13788396Y-13225384D01*
X13788396Y-13225384D02*
X13816967Y-13234908D01*
X13816967Y-13234908D02*
X13836015Y-13253955D01*
X13836015Y-13253955D02*
X13845539Y-13273003D01*
X13845539Y-13273003D02*
X13855062Y-13311098D01*
X13855062Y-13311098D02*
X13855062Y-13339669D01*
X13855062Y-13339669D02*
X13845539Y-13377765D01*
X13845539Y-13377765D02*
X13836015Y-13396812D01*
X13836015Y-13396812D02*
X13816967Y-13415860D01*
X13816967Y-13415860D02*
X13788396Y-13425384D01*
X13788396Y-13425384D02*
X13740777Y-13425384D01*
X13940777Y-13425384D02*
X13940777Y-13292050D01*
X13940777Y-13330146D02*
X13950301Y-13311098D01*
X13950301Y-13311098D02*
X13959824Y-13301574D01*
X13959824Y-13301574D02*
X13978872Y-13292050D01*
X13978872Y-13292050D02*
X13997920Y-13292050D01*
X14064586Y-13425384D02*
X14064586Y-13292050D01*
X14064586Y-13225384D02*
X14055062Y-13234908D01*
X14055062Y-13234908D02*
X14064586Y-13244431D01*
X14064586Y-13244431D02*
X14074110Y-13234908D01*
X14074110Y-13234908D02*
X14064586Y-13225384D01*
X14064586Y-13225384D02*
X14064586Y-13244431D01*
X14188396Y-13425384D02*
X14169348Y-13415860D01*
X14169348Y-13415860D02*
X14159824Y-13396812D01*
X14159824Y-13396812D02*
X14159824Y-13225384D01*
X14293158Y-13425384D02*
X14274110Y-13415860D01*
X14274110Y-13415860D02*
X14264586Y-13396812D01*
X14264586Y-13396812D02*
X14264586Y-13225384D01*
X14521729Y-13425384D02*
X14521729Y-13225384D01*
X14521729Y-13225384D02*
X14588396Y-13368241D01*
X14588396Y-13368241D02*
X14655062Y-13225384D01*
X14655062Y-13225384D02*
X14655062Y-13425384D01*
X14836015Y-13425384D02*
X14836015Y-13320622D01*
X14836015Y-13320622D02*
X14826491Y-13301574D01*
X14826491Y-13301574D02*
X14807443Y-13292050D01*
X14807443Y-13292050D02*
X14769348Y-13292050D01*
X14769348Y-13292050D02*
X14750301Y-13301574D01*
X14836015Y-13415860D02*
X14816967Y-13425384D01*
X14816967Y-13425384D02*
X14769348Y-13425384D01*
X14769348Y-13425384D02*
X14750301Y-13415860D01*
X14750301Y-13415860D02*
X14740777Y-13396812D01*
X14740777Y-13396812D02*
X14740777Y-13377765D01*
X14740777Y-13377765D02*
X14750301Y-13358717D01*
X14750301Y-13358717D02*
X14769348Y-13349193D01*
X14769348Y-13349193D02*
X14816967Y-13349193D01*
X14816967Y-13349193D02*
X14836015Y-13339669D01*
X14931253Y-13292050D02*
X14931253Y-13492050D01*
X14931253Y-13301574D02*
X14950301Y-13292050D01*
X14950301Y-13292050D02*
X14988396Y-13292050D01*
X14988396Y-13292050D02*
X15007443Y-13301574D01*
X15007443Y-13301574D02*
X15016967Y-13311098D01*
X15016967Y-13311098D02*
X15026491Y-13330146D01*
X15026491Y-13330146D02*
X15026491Y-13387288D01*
X15026491Y-13387288D02*
X15016967Y-13406336D01*
X15016967Y-13406336D02*
X15007443Y-13415860D01*
X15007443Y-13415860D02*
X14988396Y-13425384D01*
X14988396Y-13425384D02*
X14950301Y-13425384D01*
X14950301Y-13425384D02*
X14931253Y-13415860D01*
X15112205Y-13406336D02*
X15121729Y-13415860D01*
X15121729Y-13415860D02*
X15112205Y-13425384D01*
X15112205Y-13425384D02*
X15102682Y-13415860D01*
X15102682Y-13415860D02*
X15112205Y-13406336D01*
X15112205Y-13406336D02*
X15112205Y-13425384D01*
X15112205Y-13301574D02*
X15121729Y-13311098D01*
X15121729Y-13311098D02*
X15112205Y-13320622D01*
X15112205Y-13320622D02*
X15102682Y-13311098D01*
X15102682Y-13311098D02*
X15112205Y-13301574D01*
X15112205Y-13301574D02*
X15112205Y-13320622D01*
X13280000Y-13653900D02*
X13480000Y-13853900D01*
X13480000Y-13653900D02*
X13280000Y-13853900D01*
X13731253Y-13664431D02*
X13740777Y-13654908D01*
X13740777Y-13654908D02*
X13759824Y-13645384D01*
X13759824Y-13645384D02*
X13807443Y-13645384D01*
X13807443Y-13645384D02*
X13826491Y-13654908D01*
X13826491Y-13654908D02*
X13836015Y-13664431D01*
X13836015Y-13664431D02*
X13845539Y-13683479D01*
X13845539Y-13683479D02*
X13845539Y-13702527D01*
X13845539Y-13702527D02*
X13836015Y-13731098D01*
X13836015Y-13731098D02*
X13721729Y-13845384D01*
X13721729Y-13845384D02*
X13845539Y-13845384D01*
X13931253Y-13826336D02*
X13940777Y-13835860D01*
X13940777Y-13835860D02*
X13931253Y-13845384D01*
X13931253Y-13845384D02*
X13921729Y-13835860D01*
X13921729Y-13835860D02*
X13931253Y-13826336D01*
X13931253Y-13826336D02*
X13931253Y-13845384D01*
X14016967Y-13664431D02*
X14026491Y-13654908D01*
X14026491Y-13654908D02*
X14045539Y-13645384D01*
X14045539Y-13645384D02*
X14093158Y-13645384D01*
X14093158Y-13645384D02*
X14112205Y-13654908D01*
X14112205Y-13654908D02*
X14121729Y-13664431D01*
X14121729Y-13664431D02*
X14131253Y-13683479D01*
X14131253Y-13683479D02*
X14131253Y-13702527D01*
X14131253Y-13702527D02*
X14121729Y-13731098D01*
X14121729Y-13731098D02*
X14007443Y-13845384D01*
X14007443Y-13845384D02*
X14131253Y-13845384D01*
X14255062Y-13645384D02*
X14274110Y-13645384D01*
X14274110Y-13645384D02*
X14293158Y-13654908D01*
X14293158Y-13654908D02*
X14302682Y-13664431D01*
X14302682Y-13664431D02*
X14312205Y-13683479D01*
X14312205Y-13683479D02*
X14321729Y-13721574D01*
X14321729Y-13721574D02*
X14321729Y-13769193D01*
X14321729Y-13769193D02*
X14312205Y-13807288D01*
X14312205Y-13807288D02*
X14302682Y-13826336D01*
X14302682Y-13826336D02*
X14293158Y-13835860D01*
X14293158Y-13835860D02*
X14274110Y-13845384D01*
X14274110Y-13845384D02*
X14255062Y-13845384D01*
X14255062Y-13845384D02*
X14236015Y-13835860D01*
X14236015Y-13835860D02*
X14226491Y-13826336D01*
X14226491Y-13826336D02*
X14216967Y-13807288D01*
X14216967Y-13807288D02*
X14207443Y-13769193D01*
X14207443Y-13769193D02*
X14207443Y-13721574D01*
X14207443Y-13721574D02*
X14216967Y-13683479D01*
X14216967Y-13683479D02*
X14226491Y-13664431D01*
X14226491Y-13664431D02*
X14236015Y-13654908D01*
X14236015Y-13654908D02*
X14255062Y-13645384D01*
X14445539Y-13645384D02*
X14464586Y-13645384D01*
X14464586Y-13645384D02*
X14483634Y-13654908D01*
X14483634Y-13654908D02*
X14493158Y-13664431D01*
X14493158Y-13664431D02*
X14502682Y-13683479D01*
X14502682Y-13683479D02*
X14512205Y-13721574D01*
X14512205Y-13721574D02*
X14512205Y-13769193D01*
X14512205Y-13769193D02*
X14502682Y-13807288D01*
X14502682Y-13807288D02*
X14493158Y-13826336D01*
X14493158Y-13826336D02*
X14483634Y-13835860D01*
X14483634Y-13835860D02*
X14464586Y-13845384D01*
X14464586Y-13845384D02*
X14445539Y-13845384D01*
X14445539Y-13845384D02*
X14426491Y-13835860D01*
X14426491Y-13835860D02*
X14416967Y-13826336D01*
X14416967Y-13826336D02*
X14407443Y-13807288D01*
X14407443Y-13807288D02*
X14397920Y-13769193D01*
X14397920Y-13769193D02*
X14397920Y-13721574D01*
X14397920Y-13721574D02*
X14407443Y-13683479D01*
X14407443Y-13683479D02*
X14416967Y-13664431D01*
X14416967Y-13664431D02*
X14426491Y-13654908D01*
X14426491Y-13654908D02*
X14445539Y-13645384D01*
X14597920Y-13845384D02*
X14597920Y-13712050D01*
X14597920Y-13731098D02*
X14607443Y-13721574D01*
X14607443Y-13721574D02*
X14626491Y-13712050D01*
X14626491Y-13712050D02*
X14655063Y-13712050D01*
X14655063Y-13712050D02*
X14674110Y-13721574D01*
X14674110Y-13721574D02*
X14683634Y-13740622D01*
X14683634Y-13740622D02*
X14683634Y-13845384D01*
X14683634Y-13740622D02*
X14693158Y-13721574D01*
X14693158Y-13721574D02*
X14712205Y-13712050D01*
X14712205Y-13712050D02*
X14740777Y-13712050D01*
X14740777Y-13712050D02*
X14759824Y-13721574D01*
X14759824Y-13721574D02*
X14769348Y-13740622D01*
X14769348Y-13740622D02*
X14769348Y-13845384D01*
X14864586Y-13845384D02*
X14864586Y-13712050D01*
X14864586Y-13731098D02*
X14874110Y-13721574D01*
X14874110Y-13721574D02*
X14893158Y-13712050D01*
X14893158Y-13712050D02*
X14921729Y-13712050D01*
X14921729Y-13712050D02*
X14940777Y-13721574D01*
X14940777Y-13721574D02*
X14950301Y-13740622D01*
X14950301Y-13740622D02*
X14950301Y-13845384D01*
X14950301Y-13740622D02*
X14959824Y-13721574D01*
X14959824Y-13721574D02*
X14978872Y-13712050D01*
X14978872Y-13712050D02*
X15007443Y-13712050D01*
X15007443Y-13712050D02*
X15026491Y-13721574D01*
X15026491Y-13721574D02*
X15036015Y-13740622D01*
X15036015Y-13740622D02*
X15036015Y-13845384D01*
X15426491Y-13635860D02*
X15255063Y-13893003D01*
X15683634Y-13645384D02*
X15702682Y-13645384D01*
X15702682Y-13645384D02*
X15721729Y-13654908D01*
X15721729Y-13654908D02*
X15731253Y-13664431D01*
X15731253Y-13664431D02*
X15740777Y-13683479D01*
X15740777Y-13683479D02*
X15750301Y-13721574D01*
X15750301Y-13721574D02*
X15750301Y-13769193D01*
X15750301Y-13769193D02*
X15740777Y-13807288D01*
X15740777Y-13807288D02*
X15731253Y-13826336D01*
X15731253Y-13826336D02*
X15721729Y-13835860D01*
X15721729Y-13835860D02*
X15702682Y-13845384D01*
X15702682Y-13845384D02*
X15683634Y-13845384D01*
X15683634Y-13845384D02*
X15664586Y-13835860D01*
X15664586Y-13835860D02*
X15655063Y-13826336D01*
X15655063Y-13826336D02*
X15645539Y-13807288D01*
X15645539Y-13807288D02*
X15636015Y-13769193D01*
X15636015Y-13769193D02*
X15636015Y-13721574D01*
X15636015Y-13721574D02*
X15645539Y-13683479D01*
X15645539Y-13683479D02*
X15655063Y-13664431D01*
X15655063Y-13664431D02*
X15664586Y-13654908D01*
X15664586Y-13654908D02*
X15683634Y-13645384D01*
X15836015Y-13826336D02*
X15845539Y-13835860D01*
X15845539Y-13835860D02*
X15836015Y-13845384D01*
X15836015Y-13845384D02*
X15826491Y-13835860D01*
X15826491Y-13835860D02*
X15836015Y-13826336D01*
X15836015Y-13826336D02*
X15836015Y-13845384D01*
X15969348Y-13645384D02*
X15988396Y-13645384D01*
X15988396Y-13645384D02*
X16007444Y-13654908D01*
X16007444Y-13654908D02*
X16016967Y-13664431D01*
X16016967Y-13664431D02*
X16026491Y-13683479D01*
X16026491Y-13683479D02*
X16036015Y-13721574D01*
X16036015Y-13721574D02*
X16036015Y-13769193D01*
X16036015Y-13769193D02*
X16026491Y-13807288D01*
X16026491Y-13807288D02*
X16016967Y-13826336D01*
X16016967Y-13826336D02*
X16007444Y-13835860D01*
X16007444Y-13835860D02*
X15988396Y-13845384D01*
X15988396Y-13845384D02*
X15969348Y-13845384D01*
X15969348Y-13845384D02*
X15950301Y-13835860D01*
X15950301Y-13835860D02*
X15940777Y-13826336D01*
X15940777Y-13826336D02*
X15931253Y-13807288D01*
X15931253Y-13807288D02*
X15921729Y-13769193D01*
X15921729Y-13769193D02*
X15921729Y-13721574D01*
X15921729Y-13721574D02*
X15931253Y-13683479D01*
X15931253Y-13683479D02*
X15940777Y-13664431D01*
X15940777Y-13664431D02*
X15950301Y-13654908D01*
X15950301Y-13654908D02*
X15969348Y-13645384D01*
X16150301Y-13731098D02*
X16131253Y-13721574D01*
X16131253Y-13721574D02*
X16121729Y-13712050D01*
X16121729Y-13712050D02*
X16112206Y-13693003D01*
X16112206Y-13693003D02*
X16112206Y-13683479D01*
X16112206Y-13683479D02*
X16121729Y-13664431D01*
X16121729Y-13664431D02*
X16131253Y-13654908D01*
X16131253Y-13654908D02*
X16150301Y-13645384D01*
X16150301Y-13645384D02*
X16188396Y-13645384D01*
X16188396Y-13645384D02*
X16207444Y-13654908D01*
X16207444Y-13654908D02*
X16216967Y-13664431D01*
X16216967Y-13664431D02*
X16226491Y-13683479D01*
X16226491Y-13683479D02*
X16226491Y-13693003D01*
X16226491Y-13693003D02*
X16216967Y-13712050D01*
X16216967Y-13712050D02*
X16207444Y-13721574D01*
X16207444Y-13721574D02*
X16188396Y-13731098D01*
X16188396Y-13731098D02*
X16150301Y-13731098D01*
X16150301Y-13731098D02*
X16131253Y-13740622D01*
X16131253Y-13740622D02*
X16121729Y-13750146D01*
X16121729Y-13750146D02*
X16112206Y-13769193D01*
X16112206Y-13769193D02*
X16112206Y-13807288D01*
X16112206Y-13807288D02*
X16121729Y-13826336D01*
X16121729Y-13826336D02*
X16131253Y-13835860D01*
X16131253Y-13835860D02*
X16150301Y-13845384D01*
X16150301Y-13845384D02*
X16188396Y-13845384D01*
X16188396Y-13845384D02*
X16207444Y-13835860D01*
X16207444Y-13835860D02*
X16216967Y-13826336D01*
X16216967Y-13826336D02*
X16226491Y-13807288D01*
X16226491Y-13807288D02*
X16226491Y-13769193D01*
X16226491Y-13769193D02*
X16216967Y-13750146D01*
X16216967Y-13750146D02*
X16207444Y-13740622D01*
X16207444Y-13740622D02*
X16188396Y-13731098D01*
X16397920Y-13645384D02*
X16359825Y-13645384D01*
X16359825Y-13645384D02*
X16340777Y-13654908D01*
X16340777Y-13654908D02*
X16331253Y-13664431D01*
X16331253Y-13664431D02*
X16312206Y-13693003D01*
X16312206Y-13693003D02*
X16302682Y-13731098D01*
X16302682Y-13731098D02*
X16302682Y-13807288D01*
X16302682Y-13807288D02*
X16312206Y-13826336D01*
X16312206Y-13826336D02*
X16321729Y-13835860D01*
X16321729Y-13835860D02*
X16340777Y-13845384D01*
X16340777Y-13845384D02*
X16378872Y-13845384D01*
X16378872Y-13845384D02*
X16397920Y-13835860D01*
X16397920Y-13835860D02*
X16407444Y-13826336D01*
X16407444Y-13826336D02*
X16416967Y-13807288D01*
X16416967Y-13807288D02*
X16416967Y-13759669D01*
X16416967Y-13759669D02*
X16407444Y-13740622D01*
X16407444Y-13740622D02*
X16397920Y-13731098D01*
X16397920Y-13731098D02*
X16378872Y-13721574D01*
X16378872Y-13721574D02*
X16340777Y-13721574D01*
X16340777Y-13721574D02*
X16321729Y-13731098D01*
X16321729Y-13731098D02*
X16312206Y-13740622D01*
X16312206Y-13740622D02*
X16302682Y-13759669D01*
X16588396Y-13645384D02*
X16550301Y-13645384D01*
X16550301Y-13645384D02*
X16531253Y-13654908D01*
X16531253Y-13654908D02*
X16521729Y-13664431D01*
X16521729Y-13664431D02*
X16502682Y-13693003D01*
X16502682Y-13693003D02*
X16493158Y-13731098D01*
X16493158Y-13731098D02*
X16493158Y-13807288D01*
X16493158Y-13807288D02*
X16502682Y-13826336D01*
X16502682Y-13826336D02*
X16512206Y-13835860D01*
X16512206Y-13835860D02*
X16531253Y-13845384D01*
X16531253Y-13845384D02*
X16569348Y-13845384D01*
X16569348Y-13845384D02*
X16588396Y-13835860D01*
X16588396Y-13835860D02*
X16597920Y-13826336D01*
X16597920Y-13826336D02*
X16607444Y-13807288D01*
X16607444Y-13807288D02*
X16607444Y-13759669D01*
X16607444Y-13759669D02*
X16597920Y-13740622D01*
X16597920Y-13740622D02*
X16588396Y-13731098D01*
X16588396Y-13731098D02*
X16569348Y-13721574D01*
X16569348Y-13721574D02*
X16531253Y-13721574D01*
X16531253Y-13721574D02*
X16512206Y-13731098D01*
X16512206Y-13731098D02*
X16502682Y-13740622D01*
X16502682Y-13740622D02*
X16493158Y-13759669D01*
X16683634Y-13645384D02*
X16683634Y-13683479D01*
X16759825Y-13645384D02*
X16759825Y-13683479D01*
X17055063Y-13921574D02*
X17045539Y-13912050D01*
X17045539Y-13912050D02*
X17026491Y-13883479D01*
X17026491Y-13883479D02*
X17016968Y-13864431D01*
X17016968Y-13864431D02*
X17007444Y-13835860D01*
X17007444Y-13835860D02*
X16997920Y-13788241D01*
X16997920Y-13788241D02*
X16997920Y-13750146D01*
X16997920Y-13750146D02*
X17007444Y-13702527D01*
X17007444Y-13702527D02*
X17016968Y-13673955D01*
X17016968Y-13673955D02*
X17026491Y-13654908D01*
X17026491Y-13654908D02*
X17045539Y-13626336D01*
X17045539Y-13626336D02*
X17055063Y-13616812D01*
X17121730Y-13664431D02*
X17131253Y-13654908D01*
X17131253Y-13654908D02*
X17150301Y-13645384D01*
X17150301Y-13645384D02*
X17197920Y-13645384D01*
X17197920Y-13645384D02*
X17216968Y-13654908D01*
X17216968Y-13654908D02*
X17226491Y-13664431D01*
X17226491Y-13664431D02*
X17236015Y-13683479D01*
X17236015Y-13683479D02*
X17236015Y-13702527D01*
X17236015Y-13702527D02*
X17226491Y-13731098D01*
X17226491Y-13731098D02*
X17112206Y-13845384D01*
X17112206Y-13845384D02*
X17236015Y-13845384D01*
X17474111Y-13845384D02*
X17474111Y-13645384D01*
X17559825Y-13845384D02*
X17559825Y-13740622D01*
X17559825Y-13740622D02*
X17550301Y-13721574D01*
X17550301Y-13721574D02*
X17531253Y-13712050D01*
X17531253Y-13712050D02*
X17502682Y-13712050D01*
X17502682Y-13712050D02*
X17483634Y-13721574D01*
X17483634Y-13721574D02*
X17474111Y-13731098D01*
X17683634Y-13845384D02*
X17664587Y-13835860D01*
X17664587Y-13835860D02*
X17655063Y-13826336D01*
X17655063Y-13826336D02*
X17645539Y-13807288D01*
X17645539Y-13807288D02*
X17645539Y-13750146D01*
X17645539Y-13750146D02*
X17655063Y-13731098D01*
X17655063Y-13731098D02*
X17664587Y-13721574D01*
X17664587Y-13721574D02*
X17683634Y-13712050D01*
X17683634Y-13712050D02*
X17712206Y-13712050D01*
X17712206Y-13712050D02*
X17731253Y-13721574D01*
X17731253Y-13721574D02*
X17740777Y-13731098D01*
X17740777Y-13731098D02*
X17750301Y-13750146D01*
X17750301Y-13750146D02*
X17750301Y-13807288D01*
X17750301Y-13807288D02*
X17740777Y-13826336D01*
X17740777Y-13826336D02*
X17731253Y-13835860D01*
X17731253Y-13835860D02*
X17712206Y-13845384D01*
X17712206Y-13845384D02*
X17683634Y-13845384D01*
X17864587Y-13845384D02*
X17845539Y-13835860D01*
X17845539Y-13835860D02*
X17836015Y-13816812D01*
X17836015Y-13816812D02*
X17836015Y-13645384D01*
X18016968Y-13835860D02*
X17997920Y-13845384D01*
X17997920Y-13845384D02*
X17959825Y-13845384D01*
X17959825Y-13845384D02*
X17940777Y-13835860D01*
X17940777Y-13835860D02*
X17931253Y-13816812D01*
X17931253Y-13816812D02*
X17931253Y-13740622D01*
X17931253Y-13740622D02*
X17940777Y-13721574D01*
X17940777Y-13721574D02*
X17959825Y-13712050D01*
X17959825Y-13712050D02*
X17997920Y-13712050D01*
X17997920Y-13712050D02*
X18016968Y-13721574D01*
X18016968Y-13721574D02*
X18026492Y-13740622D01*
X18026492Y-13740622D02*
X18026492Y-13759669D01*
X18026492Y-13759669D02*
X17931253Y-13778717D01*
X18102682Y-13835860D02*
X18121730Y-13845384D01*
X18121730Y-13845384D02*
X18159825Y-13845384D01*
X18159825Y-13845384D02*
X18178873Y-13835860D01*
X18178873Y-13835860D02*
X18188396Y-13816812D01*
X18188396Y-13816812D02*
X18188396Y-13807288D01*
X18188396Y-13807288D02*
X18178873Y-13788241D01*
X18178873Y-13788241D02*
X18159825Y-13778717D01*
X18159825Y-13778717D02*
X18131253Y-13778717D01*
X18131253Y-13778717D02*
X18112206Y-13769193D01*
X18112206Y-13769193D02*
X18102682Y-13750146D01*
X18102682Y-13750146D02*
X18102682Y-13740622D01*
X18102682Y-13740622D02*
X18112206Y-13721574D01*
X18112206Y-13721574D02*
X18131253Y-13712050D01*
X18131253Y-13712050D02*
X18159825Y-13712050D01*
X18159825Y-13712050D02*
X18178873Y-13721574D01*
X18255063Y-13921574D02*
X18264587Y-13912050D01*
X18264587Y-13912050D02*
X18283634Y-13883479D01*
X18283634Y-13883479D02*
X18293158Y-13864431D01*
X18293158Y-13864431D02*
X18302682Y-13835860D01*
X18302682Y-13835860D02*
X18312206Y-13788241D01*
X18312206Y-13788241D02*
X18312206Y-13750146D01*
X18312206Y-13750146D02*
X18302682Y-13702527D01*
X18302682Y-13702527D02*
X18293158Y-13673955D01*
X18293158Y-13673955D02*
X18283634Y-13654908D01*
X18283634Y-13654908D02*
X18264587Y-13626336D01*
X18264587Y-13626336D02*
X18255063Y-13616812D01*
X18616968Y-13921574D02*
X18607444Y-13912050D01*
X18607444Y-13912050D02*
X18588396Y-13883479D01*
X18588396Y-13883479D02*
X18578873Y-13864431D01*
X18578873Y-13864431D02*
X18569349Y-13835860D01*
X18569349Y-13835860D02*
X18559825Y-13788241D01*
X18559825Y-13788241D02*
X18559825Y-13750146D01*
X18559825Y-13750146D02*
X18569349Y-13702527D01*
X18569349Y-13702527D02*
X18578873Y-13673955D01*
X18578873Y-13673955D02*
X18588396Y-13654908D01*
X18588396Y-13654908D02*
X18607444Y-13626336D01*
X18607444Y-13626336D02*
X18616968Y-13616812D01*
X18693158Y-13712050D02*
X18693158Y-13845384D01*
X18693158Y-13731098D02*
X18702682Y-13721574D01*
X18702682Y-13721574D02*
X18721730Y-13712050D01*
X18721730Y-13712050D02*
X18750301Y-13712050D01*
X18750301Y-13712050D02*
X18769349Y-13721574D01*
X18769349Y-13721574D02*
X18778873Y-13740622D01*
X18778873Y-13740622D02*
X18778873Y-13845384D01*
X18902682Y-13845384D02*
X18883634Y-13835860D01*
X18883634Y-13835860D02*
X18874111Y-13826336D01*
X18874111Y-13826336D02*
X18864587Y-13807288D01*
X18864587Y-13807288D02*
X18864587Y-13750146D01*
X18864587Y-13750146D02*
X18874111Y-13731098D01*
X18874111Y-13731098D02*
X18883634Y-13721574D01*
X18883634Y-13721574D02*
X18902682Y-13712050D01*
X18902682Y-13712050D02*
X18931254Y-13712050D01*
X18931254Y-13712050D02*
X18950301Y-13721574D01*
X18950301Y-13721574D02*
X18959825Y-13731098D01*
X18959825Y-13731098D02*
X18969349Y-13750146D01*
X18969349Y-13750146D02*
X18969349Y-13807288D01*
X18969349Y-13807288D02*
X18959825Y-13826336D01*
X18959825Y-13826336D02*
X18950301Y-13835860D01*
X18950301Y-13835860D02*
X18931254Y-13845384D01*
X18931254Y-13845384D02*
X18902682Y-13845384D01*
X19026492Y-13712050D02*
X19102682Y-13712050D01*
X19055063Y-13645384D02*
X19055063Y-13816812D01*
X19055063Y-13816812D02*
X19064587Y-13835860D01*
X19064587Y-13835860D02*
X19083634Y-13845384D01*
X19083634Y-13845384D02*
X19102682Y-13845384D01*
X19321730Y-13712050D02*
X19321730Y-13912050D01*
X19321730Y-13721574D02*
X19340777Y-13712050D01*
X19340777Y-13712050D02*
X19378873Y-13712050D01*
X19378873Y-13712050D02*
X19397920Y-13721574D01*
X19397920Y-13721574D02*
X19407444Y-13731098D01*
X19407444Y-13731098D02*
X19416968Y-13750146D01*
X19416968Y-13750146D02*
X19416968Y-13807288D01*
X19416968Y-13807288D02*
X19407444Y-13826336D01*
X19407444Y-13826336D02*
X19397920Y-13835860D01*
X19397920Y-13835860D02*
X19378873Y-13845384D01*
X19378873Y-13845384D02*
X19340777Y-13845384D01*
X19340777Y-13845384D02*
X19321730Y-13835860D01*
X19531254Y-13845384D02*
X19512206Y-13835860D01*
X19512206Y-13835860D02*
X19502682Y-13816812D01*
X19502682Y-13816812D02*
X19502682Y-13645384D01*
X19693158Y-13845384D02*
X19693158Y-13740622D01*
X19693158Y-13740622D02*
X19683635Y-13721574D01*
X19683635Y-13721574D02*
X19664587Y-13712050D01*
X19664587Y-13712050D02*
X19626492Y-13712050D01*
X19626492Y-13712050D02*
X19607444Y-13721574D01*
X19693158Y-13835860D02*
X19674111Y-13845384D01*
X19674111Y-13845384D02*
X19626492Y-13845384D01*
X19626492Y-13845384D02*
X19607444Y-13835860D01*
X19607444Y-13835860D02*
X19597920Y-13816812D01*
X19597920Y-13816812D02*
X19597920Y-13797765D01*
X19597920Y-13797765D02*
X19607444Y-13778717D01*
X19607444Y-13778717D02*
X19626492Y-13769193D01*
X19626492Y-13769193D02*
X19674111Y-13769193D01*
X19674111Y-13769193D02*
X19693158Y-13759669D01*
X19759825Y-13712050D02*
X19836015Y-13712050D01*
X19788396Y-13645384D02*
X19788396Y-13816812D01*
X19788396Y-13816812D02*
X19797920Y-13835860D01*
X19797920Y-13835860D02*
X19816968Y-13845384D01*
X19816968Y-13845384D02*
X19836015Y-13845384D01*
X19978873Y-13835860D02*
X19959825Y-13845384D01*
X19959825Y-13845384D02*
X19921730Y-13845384D01*
X19921730Y-13845384D02*
X19902682Y-13835860D01*
X19902682Y-13835860D02*
X19893158Y-13816812D01*
X19893158Y-13816812D02*
X19893158Y-13740622D01*
X19893158Y-13740622D02*
X19902682Y-13721574D01*
X19902682Y-13721574D02*
X19921730Y-13712050D01*
X19921730Y-13712050D02*
X19959825Y-13712050D01*
X19959825Y-13712050D02*
X19978873Y-13721574D01*
X19978873Y-13721574D02*
X19988396Y-13740622D01*
X19988396Y-13740622D02*
X19988396Y-13759669D01*
X19988396Y-13759669D02*
X19893158Y-13778717D01*
X20159825Y-13845384D02*
X20159825Y-13645384D01*
X20159825Y-13835860D02*
X20140777Y-13845384D01*
X20140777Y-13845384D02*
X20102682Y-13845384D01*
X20102682Y-13845384D02*
X20083635Y-13835860D01*
X20083635Y-13835860D02*
X20074111Y-13826336D01*
X20074111Y-13826336D02*
X20064587Y-13807288D01*
X20064587Y-13807288D02*
X20064587Y-13750146D01*
X20064587Y-13750146D02*
X20074111Y-13731098D01*
X20074111Y-13731098D02*
X20083635Y-13721574D01*
X20083635Y-13721574D02*
X20102682Y-13712050D01*
X20102682Y-13712050D02*
X20140777Y-13712050D01*
X20140777Y-13712050D02*
X20159825Y-13721574D01*
X20236016Y-13921574D02*
X20245539Y-13912050D01*
X20245539Y-13912050D02*
X20264587Y-13883479D01*
X20264587Y-13883479D02*
X20274111Y-13864431D01*
X20274111Y-13864431D02*
X20283635Y-13835860D01*
X20283635Y-13835860D02*
X20293158Y-13788241D01*
X20293158Y-13788241D02*
X20293158Y-13750146D01*
X20293158Y-13750146D02*
X20283635Y-13702527D01*
X20283635Y-13702527D02*
X20274111Y-13673955D01*
X20274111Y-13673955D02*
X20264587Y-13654908D01*
X20264587Y-13654908D02*
X20245539Y-13626336D01*
X20245539Y-13626336D02*
X20236016Y-13616812D01*
M02*
