G04 #@! TF.GenerationSoftware,KiCad,Pcbnew,10.0.0*
G04 #@! TF.CreationDate,2026-08-20T20:12:35+05:30*
G04 #@! TF.ProjectId,Gpio Hat Pi,4770696f-2048-4617-9420-50692e6b6963,1*
G04 #@! TF.SameCoordinates,Original*
G04 #@! TF.FileFunction,Copper,L2,Bot*
G04 #@! TF.FilePolarity,Positive*
%FSLAX46Y46*%
G04 Gerber Fmt 4.6, Leading zero omitted, Abs format (unit mm)*
G04 Created by KiCad (PCBNEW 10.0.0) date 2026-08-20 20:12:35*
%MOMM*%
%LPD*%
G01*
G04 APERTURE LIST*
G04 #@! TA.AperFunction,ComponentPad*
%ADD10O,1.700000X1.700000*%
G04 #@! TD*
G04 #@! TA.AperFunction,ComponentPad*
%ADD11R,1.700000X1.700000*%
G04 #@! TD*
G04 #@! TA.AperFunction,ComponentPad*
%ADD12O,1.524000X1.524000*%
G04 #@! TD*
G04 #@! TA.AperFunction,ViaPad*
%ADD13C,1.000000*%
G04 #@! TD*
G04 #@! TA.AperFunction,ViaPad*
%ADD14C,0.800000*%
G04 #@! TD*
G04 #@! TA.AperFunction,Conductor*
%ADD15C,0.300000*%
G04 #@! TD*
G04 #@! TA.AperFunction,Conductor*
%ADD16C,0.250000*%
G04 #@! TD*
G04 APERTURE END LIST*
D10*
X165735000Y-115570000D03*
X165735000Y-118110000D03*
X163195000Y-115570000D03*
X163195000Y-118110000D03*
X160655000Y-115570000D03*
X160655000Y-118110000D03*
X158115000Y-115570000D03*
X158115000Y-118110000D03*
X155575000Y-115570000D03*
X155575000Y-118110000D03*
X153035000Y-115570000D03*
X153035000Y-118110000D03*
X150495000Y-115570000D03*
X150495000Y-118110000D03*
X147955000Y-115570000D03*
D11*
X147955000Y-118110000D03*
D12*
X147624800Y-125247400D03*
X154127200Y-125247400D03*
X147624800Y-129768600D03*
X154127200Y-129768600D03*
D11*
X165608000Y-129032000D03*
D10*
X163068000Y-129032000D03*
X160528000Y-129032000D03*
X157988000Y-129032000D03*
D13*
X148336000Y-120396000D03*
X141732000Y-124460000D03*
X163576000Y-120396000D03*
D14*
X156972000Y-121412000D03*
X151892000Y-123952000D03*
X149860000Y-124397400D03*
X149860000Y-126492000D03*
D15*
X158115000Y-119761000D02*
X158115000Y-118110000D01*
X157988000Y-129032000D02*
X157988000Y-118237000D01*
X157480000Y-120396000D02*
X158115000Y-119761000D01*
X158115000Y-120015000D02*
X158115000Y-118110000D01*
X157988000Y-118237000D02*
X158115000Y-118110000D01*
X158496000Y-120396000D02*
X158115000Y-120015000D01*
X141732000Y-124460000D02*
X145796000Y-120396000D01*
X163576000Y-120396000D02*
X158496000Y-120396000D01*
X145796000Y-120396000D02*
X148336000Y-120396000D01*
X148336000Y-120396000D02*
X157480000Y-120396000D01*
D16*
X156972000Y-121412000D02*
X154432000Y-123952000D01*
X154432000Y-123952000D02*
X151892000Y-123952000D01*
X149860000Y-124460000D02*
X149860000Y-124397400D01*
X149860000Y-126492000D02*
X149860000Y-124460000D01*
X162015999Y-119470999D02*
X161504999Y-118959999D01*
X161504999Y-118959999D02*
X160655000Y-118110000D01*
X164020001Y-119470999D02*
X162015999Y-119470999D01*
X164501001Y-119951999D02*
X164020001Y-119470999D01*
X163068000Y-129032000D02*
X163068000Y-122936000D01*
X163068000Y-122936000D02*
X164501001Y-121502999D01*
X164501001Y-121502999D02*
X164501001Y-119951999D01*
M02*
