G04 #@! TF.GenerationSoftware,KiCad,Pcbnew,10.0.0*
G04 #@! TF.CreationDate,2026-08-20T20:12:36+05:30*
G04 #@! TF.ProjectId,Gpio Hat Pi,4770696f-2048-4617-9420-50692e6b6963,1*
G04 #@! TF.SameCoordinates,Original*
G04 #@! TF.FileFunction,Legend,Bot*
G04 #@! TF.FilePolarity,Positive*
%FSLAX46Y46*%
G04 Gerber Fmt 4.6, Leading zero omitted, Abs format (unit mm)*
G04 Created by KiCad (PCBNEW 10.0.0) date 2026-08-20 20:12:36*
%MOMM*%
%LPD*%
G01*
G04 APERTURE LIST*
%ADD10C,0.300000*%
G04 APERTURE END LIST*
D10*
G36*
X144818674Y-116635764D02*
G01*
X145908974Y-116635764D01*
X145908974Y-116419731D01*
X146120000Y-116419731D01*
X146120000Y-117148429D01*
X146111728Y-117344397D01*
X146089141Y-117500807D01*
X146054884Y-117624670D01*
X146010548Y-117721912D01*
X145950660Y-117803426D01*
X145877637Y-117862333D01*
X145788751Y-117899415D01*
X145679996Y-117912665D01*
X145584803Y-117899685D01*
X145504675Y-117862730D01*
X145436455Y-117802634D01*
X145380807Y-117721740D01*
X145335890Y-117616218D01*
X145302366Y-117480722D01*
X145272684Y-117590972D01*
X145235332Y-117675014D01*
X145190900Y-117737665D01*
X145136665Y-117783641D01*
X145071648Y-117812266D01*
X144993063Y-117822418D01*
X144901745Y-117810678D01*
X144825457Y-117777447D01*
X144761154Y-117723902D01*
X144706841Y-117648761D01*
X144666167Y-117560027D01*
X144635156Y-117450115D01*
X144614966Y-117314650D01*
X144607648Y-117148429D01*
X144818674Y-117148429D01*
X144825245Y-117246402D01*
X144843115Y-117321465D01*
X144870697Y-117378750D01*
X144909120Y-117422194D01*
X144957696Y-117449094D01*
X145019533Y-117458740D01*
X145078457Y-117448992D01*
X145125985Y-117421411D01*
X145164796Y-117376064D01*
X145192874Y-117317163D01*
X145210785Y-117242697D01*
X145217278Y-117148429D01*
X145410718Y-117148429D01*
X145418695Y-117288174D01*
X145439533Y-117387311D01*
X145470069Y-117456053D01*
X145514638Y-117507015D01*
X145575850Y-117539691D01*
X145659296Y-117551796D01*
X145745068Y-117539772D01*
X145806814Y-117507638D01*
X145850722Y-117458129D01*
X145880492Y-117390717D01*
X145901038Y-117291230D01*
X145908974Y-117148429D01*
X145908974Y-116996632D01*
X145410718Y-116996632D01*
X145410718Y-117148429D01*
X145217278Y-117148429D01*
X145217278Y-116996632D01*
X144818674Y-116996632D01*
X144818674Y-117148429D01*
X144607648Y-117148429D01*
X144607648Y-116419731D01*
X144818674Y-116419731D01*
X144818674Y-116635764D01*
G37*
G36*
X146559637Y-119037648D02*
G01*
X146559637Y-118306140D01*
X146354473Y-118306140D01*
X146354473Y-118511304D01*
X146095453Y-118682152D01*
X145346238Y-118247400D01*
X145346238Y-118084734D01*
X145141074Y-118084734D01*
X145141074Y-118749197D01*
X145346238Y-118749197D01*
X145346238Y-118575540D01*
X145849073Y-118855809D01*
X145346238Y-119146946D01*
X145346238Y-118978785D01*
X145141074Y-118978785D01*
X145141074Y-119631036D01*
X145346238Y-119631036D01*
X145346238Y-119471057D01*
X146354473Y-118832606D01*
X146354473Y-119037648D01*
X146559637Y-119037648D01*
G37*
G36*
X145990948Y-120882536D02*
G01*
X146120000Y-120882536D01*
X146120000Y-120591399D01*
X145604159Y-120591399D01*
X145604159Y-120882536D01*
X145709834Y-120930843D01*
X145791409Y-120990699D01*
X145853195Y-121060956D01*
X145900124Y-121147385D01*
X145928455Y-121246604D01*
X145938283Y-121362351D01*
X145930704Y-121450957D01*
X145908782Y-121527499D01*
X145872337Y-121594748D01*
X145824650Y-121647528D01*
X145771403Y-121678562D01*
X145710587Y-121689148D01*
X145655612Y-121679814D01*
X145609258Y-121652890D01*
X145569446Y-121607815D01*
X145538085Y-121549421D01*
X145505962Y-121461099D01*
X145473641Y-121333775D01*
X145425281Y-121104064D01*
X145378466Y-120924469D01*
X145325769Y-120794154D01*
X145268477Y-120702773D01*
X145216081Y-120649018D01*
X145156438Y-120610226D01*
X145088171Y-120586147D01*
X145009458Y-120577721D01*
X144919999Y-120588897D01*
X144840144Y-120621381D01*
X144767927Y-120674969D01*
X144701987Y-120751256D01*
X144648195Y-120842826D01*
X144609901Y-120944172D01*
X144586452Y-121057239D01*
X144578339Y-121184665D01*
X144586707Y-121320517D01*
X144611037Y-121443073D01*
X144651530Y-121554276D01*
X144706108Y-121646772D01*
X144607648Y-121646772D01*
X144607648Y-121927041D01*
X145053147Y-121927041D01*
X145053147Y-121646772D01*
X144967787Y-121606358D01*
X144902962Y-121556354D01*
X144854852Y-121497662D01*
X144819099Y-121425878D01*
X144797098Y-121341359D01*
X144789364Y-121240718D01*
X144795743Y-121155904D01*
X144813770Y-121085594D01*
X144842854Y-121026762D01*
X144881920Y-120980629D01*
X144926586Y-120953427D01*
X144978775Y-120944085D01*
X145043281Y-120957960D01*
X145090333Y-120996720D01*
X145125578Y-121062121D01*
X145160034Y-121181978D01*
X145212515Y-121426709D01*
X145256537Y-121600026D01*
X145301736Y-121732272D01*
X145347409Y-121830740D01*
X145393224Y-121901762D01*
X145449327Y-121960456D01*
X145514397Y-122003089D01*
X145590160Y-122029752D01*
X145678897Y-122039148D01*
X145784000Y-122027544D01*
X145874335Y-121994480D01*
X145952555Y-121941298D01*
X146020623Y-121867568D01*
X146075909Y-121776814D01*
X146115796Y-121672468D01*
X146140601Y-121551902D01*
X146149309Y-121411566D01*
X146139002Y-121255053D01*
X146109192Y-121116277D01*
X146059572Y-120990857D01*
X145990948Y-120882536D01*
G37*
G36*
X145740474Y-122235996D02*
G01*
X145836990Y-122271438D01*
X145922509Y-122329021D01*
X145998825Y-122409542D01*
X146061821Y-122508496D01*
X146106547Y-122619081D01*
X146133943Y-122743636D01*
X146143447Y-122885450D01*
X146135222Y-123000192D01*
X146110840Y-123107466D01*
X146071023Y-123206156D01*
X146016135Y-123294190D01*
X146120000Y-123294190D01*
X146120000Y-123800139D01*
X145914836Y-123800139D01*
X145914836Y-123618300D01*
X145346238Y-123618300D01*
X145346238Y-123800139D01*
X145141074Y-123800139D01*
X145141074Y-123294190D01*
X145248053Y-123294190D01*
X145189836Y-123199604D01*
X145149959Y-123102704D01*
X145125818Y-122998559D01*
X145120793Y-122929169D01*
X145340376Y-122929169D01*
X145349869Y-123031116D01*
X145377476Y-123119297D01*
X145423907Y-123197103D01*
X145483811Y-123256691D01*
X145553081Y-123292674D01*
X145634475Y-123305181D01*
X145715941Y-123292715D01*
X145784881Y-123256937D01*
X145844127Y-123197836D01*
X145889832Y-123120482D01*
X145917136Y-123032088D01*
X145926559Y-122929169D01*
X145917111Y-122823558D01*
X145890014Y-122734856D01*
X145845135Y-122659159D01*
X145786619Y-122601889D01*
X145717409Y-122566904D01*
X145634475Y-122554623D01*
X145550856Y-122566923D01*
X145481169Y-122601930D01*
X145422350Y-122659159D01*
X145377145Y-122734910D01*
X145349879Y-122823610D01*
X145340376Y-122929169D01*
X145120793Y-122929169D01*
X145117627Y-122885450D01*
X145127202Y-122746839D01*
X145154963Y-122623682D01*
X145200608Y-122512904D01*
X145265363Y-122412351D01*
X145343378Y-122329985D01*
X145429095Y-122271585D01*
X145524095Y-122235962D01*
X145630537Y-122223674D01*
X145740474Y-122235996D01*
G37*
G36*
X145740474Y-123971097D02*
G01*
X145836990Y-124006539D01*
X145922509Y-124064122D01*
X145998825Y-124144644D01*
X146061821Y-124243597D01*
X146106547Y-124354182D01*
X146133943Y-124478738D01*
X146143447Y-124620551D01*
X146135222Y-124735293D01*
X146110840Y-124842568D01*
X146071023Y-124941257D01*
X146016135Y-125029291D01*
X146120000Y-125029291D01*
X146120000Y-125535240D01*
X145914836Y-125535240D01*
X145914836Y-125353401D01*
X144607648Y-125353401D01*
X144607648Y-124850261D01*
X144812812Y-124850261D01*
X144812812Y-125029291D01*
X145249243Y-125029291D01*
X145190521Y-124934671D01*
X145150325Y-124837805D01*
X145125908Y-124733637D01*
X145120828Y-124664270D01*
X145340376Y-124664270D01*
X145349869Y-124766217D01*
X145377476Y-124854398D01*
X145423907Y-124932205D01*
X145483811Y-124991793D01*
X145553081Y-125027776D01*
X145634475Y-125040282D01*
X145715979Y-125027889D01*
X145784921Y-124992338D01*
X145844127Y-124933670D01*
X145889756Y-124856734D01*
X145917095Y-124768140D01*
X145926559Y-124664270D01*
X145917112Y-124562374D01*
X145889669Y-124474445D01*
X145843578Y-124397069D01*
X145784016Y-124337870D01*
X145715224Y-124302138D01*
X145634475Y-124289724D01*
X145553074Y-124302218D01*
X145483805Y-124338163D01*
X145423907Y-124397679D01*
X145377414Y-124475530D01*
X145349837Y-124563290D01*
X145340376Y-124664270D01*
X145120828Y-124664270D01*
X145117627Y-124620551D01*
X145127202Y-124481940D01*
X145154963Y-124358783D01*
X145200608Y-124248006D01*
X145265363Y-124147452D01*
X145343378Y-124065086D01*
X145429095Y-124006687D01*
X145524095Y-123971063D01*
X145630537Y-123958775D01*
X145740474Y-123971097D01*
G37*
G36*
X145283040Y-126187124D02*
G01*
X145278919Y-126203489D01*
X145211136Y-126240720D01*
X145163880Y-126292393D01*
X145133759Y-126359781D01*
X145123489Y-126441381D01*
X145129156Y-126505165D01*
X145145476Y-126559336D01*
X145172581Y-126606123D01*
X145207890Y-126641930D01*
X145248936Y-126663562D01*
X145297420Y-126671092D01*
X145345908Y-126663593D01*
X145386595Y-126642132D01*
X145421251Y-126606734D01*
X145447588Y-126560405D01*
X145463678Y-126505203D01*
X145469337Y-126438572D01*
X145460837Y-126364879D01*
X145435723Y-126301186D01*
X145395813Y-126249020D01*
X145337903Y-126206175D01*
X145344132Y-126187124D01*
X145914836Y-126187124D01*
X145914836Y-126368963D01*
X146120000Y-126368963D01*
X146120000Y-125679832D01*
X145914836Y-125679832D01*
X145914836Y-125861671D01*
X145346238Y-125861671D01*
X145346238Y-125679832D01*
X145141074Y-125679832D01*
X145141074Y-126187124D01*
X145283040Y-126187124D01*
G37*
G36*
X144982805Y-126883827D02*
G01*
X144724884Y-126883827D01*
X144724884Y-127314549D01*
X144982805Y-127314549D01*
X144982805Y-126883827D01*
G37*
G36*
X145914836Y-127314549D02*
G01*
X145914836Y-127501762D01*
X146120000Y-127501762D01*
X146120000Y-126790893D01*
X145914836Y-126790893D01*
X145914836Y-126989096D01*
X145346238Y-126989096D01*
X145346238Y-126793579D01*
X145141074Y-126793579D01*
X145141074Y-127314549D01*
X145914836Y-127314549D01*
G37*
G36*
X145742278Y-128128489D02*
G01*
X145857960Y-128137821D01*
X145898624Y-128155844D01*
X145911655Y-128178642D01*
X145922038Y-128228115D01*
X145926559Y-128321318D01*
X145923537Y-128352704D01*
X145922529Y-128366381D01*
X146120000Y-128366381D01*
X146124396Y-128261723D01*
X146125861Y-128147662D01*
X146118997Y-128008646D01*
X146102171Y-127922577D01*
X146079425Y-127872766D01*
X146043606Y-127840461D01*
X145976956Y-127816030D01*
X145863453Y-127805844D01*
X145346238Y-127805844D01*
X145346238Y-127580286D01*
X145141074Y-127580286D01*
X145141074Y-127805844D01*
X144801088Y-127805844D01*
X144801088Y-128128489D01*
X145141074Y-128128489D01*
X145141074Y-128366381D01*
X145346238Y-128366381D01*
X145346238Y-128128489D01*
X145742278Y-128128489D01*
G37*
G36*
X145740474Y-128576540D02*
G01*
X145836990Y-128611982D01*
X145922509Y-128669565D01*
X145998825Y-128750087D01*
X146061821Y-128849040D01*
X146106547Y-128959626D01*
X146133943Y-129084181D01*
X146143447Y-129225994D01*
X146135222Y-129340737D01*
X146110840Y-129448011D01*
X146071023Y-129546701D01*
X146016135Y-129634734D01*
X146120000Y-129634734D01*
X146120000Y-130140683D01*
X145914836Y-130140683D01*
X145914836Y-129958845D01*
X145346238Y-129958845D01*
X145346238Y-130140683D01*
X145141074Y-130140683D01*
X145141074Y-129634734D01*
X145248053Y-129634734D01*
X145189836Y-129540148D01*
X145149959Y-129443248D01*
X145125818Y-129339103D01*
X145120793Y-129269713D01*
X145340376Y-129269713D01*
X145349869Y-129371660D01*
X145377476Y-129459841D01*
X145423907Y-129537648D01*
X145483811Y-129597236D01*
X145553081Y-129633219D01*
X145634475Y-129645725D01*
X145715941Y-129633259D01*
X145784881Y-129597481D01*
X145844127Y-129538381D01*
X145889832Y-129461026D01*
X145917136Y-129372632D01*
X145926559Y-129269713D01*
X145917111Y-129164102D01*
X145890014Y-129075400D01*
X145845135Y-128999703D01*
X145786619Y-128942433D01*
X145717409Y-128907448D01*
X145634475Y-128895167D01*
X145550856Y-128907467D01*
X145481169Y-128942474D01*
X145422350Y-128999703D01*
X145377145Y-129075454D01*
X145349879Y-129164155D01*
X145340376Y-129269713D01*
X145120793Y-129269713D01*
X145117627Y-129225994D01*
X145127202Y-129087383D01*
X145154963Y-128964227D01*
X145200608Y-128853449D01*
X145265363Y-128752896D01*
X145343378Y-128670529D01*
X145429095Y-128612130D01*
X145524095Y-128576506D01*
X145630537Y-128564218D01*
X145740474Y-128576540D01*
G37*
M02*
