M48
; DRILL file KiCad 10.0.0 date 2026-08-20T20:12:32
; FORMAT={-:-/ absolute / metric / decimal}
; #@! TF.CreationDate,2026-08-20T20:12:32+05:30
; #@! TF.GenerationSoftware,Kicad,Pcbnew,10.0.0
; #@! TF.FileFunction,Plated,1,2,PTH
FMAT,2
METRIC
; #@! TA.AperFunction,Plated,PTH,ViaDrill
T1C0.400
; #@! TA.AperFunction,Plated,PTH,ViaDrill
T2C0.600
; #@! TA.AperFunction,Plated,PTH,ComponentDrill
T3C1.000
; #@! TA.AperFunction,Plated,PTH,ComponentDrill
T4C1.016
%
G90
G05
T1
X149.86Y-124.397
X149.86Y-126.492
X151.892Y-123.952
X156.972Y-121.412
T2
X141.732Y-124.46
X148.336Y-120.396
X163.576Y-120.396
T3
X147.955Y-115.57
X147.955Y-118.11
X150.495Y-115.57
X150.495Y-118.11
X153.035Y-115.57
X153.035Y-118.11
X155.575Y-115.57
X155.575Y-118.11
X157.988Y-129.032
X158.115Y-115.57
X158.115Y-118.11
X160.528Y-129.032
X160.655Y-115.57
X160.655Y-118.11
X163.068Y-129.032
X163.195Y-115.57
X163.195Y-118.11
X165.608Y-129.032
X165.735Y-115.57
X165.735Y-118.11
T4
X147.625Y-125.247
X147.625Y-129.769
X154.127Y-125.247
X154.127Y-129.769
M30
